<?xml version="1.0" encoding="UTF-8" standalone="no"?>
<!-- Created with Inkscape (http://www.inkscape.org/) -->

<svg
   xmlns:dc="http://purl.org/dc/elements/1.1/"
   xmlns:cc="http://creativecommons.org/ns#"
   xmlns:rdf="http://www.w3.org/1999/02/22-rdf-syntax-ns#"
   xmlns:svg="http://www.w3.org/2000/svg"
   xmlns="http://www.w3.org/2000/svg"
   xmlns:sodipodi="http://sodipodi.sourceforge.net/DTD/sodipodi-0.dtd"
   xmlns:inkscape="http://www.inkscape.org/namespaces/inkscape"
   width="282.52463"
   height="11.220045"
   id="svg2"
   version="1.1"
   inkscape:version="0.48.5 r10040"
   sodipodi:docname="footer.svg">
  <defs
     id="defs4" />
  <sodipodi:namedview
     id="base"
     pagecolor="#ffffff"
     bordercolor="#666666"
     borderopacity="1.0"
     inkscape:pageopacity="0.0"
     inkscape:pageshadow="2"
     inkscape:zoom="0.35"
     inkscape:cx="-187.41856"
     inkscape:cy="-325.71128"
     inkscape:document-units="px"
     inkscape:current-layer="layer1"
     showgrid="false"
     fit-margin-top="0"
     fit-margin-left="0"
     fit-margin-right="0"
     fit-margin-bottom="0"
     inkscape:window-width="1920"
     inkscape:window-height="1005"
     inkscape:window-x="-9"
     inkscape:window-y="-9"
     inkscape:window-maximized="1" />
  <metadata
     id="metadata7">
    <rdf:RDF>
      <cc:Work
         rdf:about="">
        <dc:format>image/svg+xml</dc:format>
        <dc:type
           rdf:resource="http://purl.org/dc/dcmitype/StillImage" />
        <dc:title></dc:title>
      </cc:Work>
    </rdf:RDF>
  </metadata>
  <g
     inkscape:label="Layer 1"
     inkscape:groupmode="layer"
     id="layer1"
     transform="translate(-43.847131,-195.43086)">
    <g
       style="font-size:11px;font-style:normal;font-weight:normal;line-height:125%;letter-spacing:0px;word-spacing:0px;fill:#ffffff;fill-opacity:1;stroke:none;font-family:Apex Sans Book;-inkscape-font-specification:Apex Sans Book"
       id="text2985">
      <path
         d="m 48.247074,199.14882 -3.618953,0 0,-2.88197 4.003948,0 0,-0.72599 -4.784938,0 0,8.2499 4.784938,0 0,-0.72599 -4.003948,0 0,-3.18996 3.618953,0 z"
         id="path2990"
         inkscape:connector-curvature="0"
         style="fill:#ffffff;fill-opacity:1" />
      <path
         d="m 50.442834,203.79076 2.683965,0 c 1.014962,-0.0163 1.732243,-0.24223 2.151847,-0.67787 0.419593,-0.43564 0.622632,-0.98334 0.609118,-1.6431 9.1e-4,-0.45306 -0.113672,-0.86693 -0.343746,-1.24161 -0.230086,-0.37468 -0.581165,-0.6318 -1.053236,-0.77137 0.359552,-0.16247 0.635923,-0.40126 0.829114,-0.71636 0.193179,-0.3151 0.290802,-0.65564 0.292871,-1.02162 0.01352,-0.61529 -0.173024,-1.12816 -0.559617,-1.5386 -0.386605,-0.41043 -1.054387,-0.62355 -2.00335,-0.63937 l -2.606966,0 z m 0.78099,-3.91595 1.968974,0 c 0.668008,-0.003 1.14146,0.12398 1.420357,0.38087 0.278887,0.25689 0.414093,0.6616 0.40562,1.21411 0.01993,0.41295 -0.09419,0.77778 -0.342371,1.09448 -0.248189,0.31671 -0.750057,0.48354 -1.505605,0.5005 l -1.946975,0 z m 3.519954,-2.15598 c 0.01306,0.36759 -0.09007,0.69392 -0.309371,0.97899 -0.219314,0.28509 -0.633184,0.43542 -1.241609,0.451 l -1.968974,0 0,-2.88197 1.880976,0 c 0.679466,0.0151 1.127251,0.16638 1.343357,0.45375 0.216096,0.28738 0.314637,0.62012 0.295621,0.99823 z"
         id="path2992"
         inkscape:connector-curvature="0"
         style="fill:#ffffff;fill-opacity:1" />
      <path
         d="m 63.5276,199.66581 c 0.01228,-0.73101 -0.05263,-1.4164 -0.194738,-2.05616 -0.142122,-0.63975 -0.43518,-1.15973 -0.879174,-1.55994 -0.444006,-0.4002 -1.112688,-0.60648 -2.006048,-0.61885 -0.886442,0.0124 -1.551865,0.21865 -1.996271,0.61885 -0.444409,0.40021 -0.739096,0.92019 -0.884063,1.55994 -0.144968,0.63976 -0.21151,1.32515 -0.199626,2.05616 -0.01188,0.73102 0.05466,1.4164 0.199627,2.05616 0.144966,0.63976 0.439653,1.15974 0.884062,1.55994 0.444406,0.40021 1.109829,0.60649 1.996271,0.61884 0.89336,-0.0123 1.562042,-0.21863 2.006048,-0.61884 0.443994,-0.4002 0.737052,-0.92018 0.879174,-1.55994 0.142109,-0.63976 0.207021,-1.32514 0.194738,-2.05616 z m -0.813989,0 c 0.03001,0.98449 -0.09878,1.81223 -0.38637,2.48322 -0.287606,0.67099 -0.914139,1.02023 -1.879601,1.04773 -0.96547,-0.0275 -1.592003,-0.37674 -1.879601,-1.04773 -0.287602,-0.67099 -0.416392,-1.49873 -0.38637,-2.48322 -0.03002,-0.98448 0.09877,-1.81222 0.38637,-2.48322 0.287599,-0.67098 0.914132,-1.02023 1.879601,-1.04774 0.965462,0.0275 1.591995,0.37676 1.879601,1.04774 0.287594,0.671 0.416384,1.49874 0.38637,2.48322 z"
         id="path2994"
         inkscape:connector-curvature="0"
         style="fill:#ffffff;fill-opacity:1" />
      <path
         d="m 66.826971,199.79781 3.002961,3.99295 1.022987,0 -3.541954,-4.55395 3.211958,-3.69595 -1.011987,0 -3.398956,4.11395 0,-4.11395 -0.75899,0 0,8.2499 0.75899,0 0,-3.16796 z"
         id="path2996"
         inkscape:connector-curvature="0"
         style="fill:#ffffff;fill-opacity:1" />
      <path
         d="m 71.842995,203.29576 c 0.0039,0.1744 0.0621,0.31785 0.174623,0.43037 0.112518,0.11252 0.255975,0.17073 0.430369,0.17462 0.174392,-0.004 0.317849,-0.0621 0.43037,-0.17462 0.112517,-0.11252 0.170725,-0.25597 0.174622,-0.43037 -0.0039,-0.17439 -0.0621,-0.31785 -0.174622,-0.43037 -0.112521,-0.11252 -0.255978,-0.17072 -0.43037,-0.17462 -0.174394,0.004 -0.317851,0.0621 -0.430369,0.17462 -0.11252,0.11252 -0.170728,0.25598 -0.174623,0.43037 z"
         id="path2998"
         inkscape:connector-curvature="0"
         style="fill:#ffffff;fill-opacity:1" />
      <path
         d="m 80.375651,203.79076 0,-8.2499 -0.747991,0 0.022,6.68792 -4.432943,-6.68792 -0.560993,0 0,8.2499 0.747991,0 -0.022,-6.68792 4.432943,6.68792 z"
         id="path3000"
         inkscape:connector-curvature="0"
         style="fill:#ffffff;fill-opacity:1" />
      <path
         d="m 88.342053,199.66581 c 0.01228,-0.73101 -0.05263,-1.4164 -0.194738,-2.05616 -0.142122,-0.63975 -0.43518,-1.15973 -0.879174,-1.55994 -0.444006,-0.4002 -1.112688,-0.60648 -2.006048,-0.61885 -0.886442,0.0124 -1.551865,0.21865 -1.996271,0.61885 -0.444409,0.40021 -0.739096,0.92019 -0.884062,1.55994 -0.144969,0.63976 -0.211511,1.32515 -0.199627,2.05616 -0.01188,0.73102 0.05466,1.4164 0.199627,2.05616 0.144966,0.63976 0.439653,1.15974 0.884062,1.55994 0.444406,0.40021 1.109829,0.60649 1.996271,0.61884 0.89336,-0.0123 1.562042,-0.21863 2.006048,-0.61884 0.443994,-0.4002 0.737052,-0.92018 0.879174,-1.55994 0.142109,-0.63976 0.207021,-1.32514 0.194738,-2.05616 z m -0.813989,0 c 0.03001,0.98449 -0.09878,1.81223 -0.38637,2.48322 -0.287606,0.67099 -0.914139,1.02023 -1.879601,1.04773 -0.96547,-0.0275 -1.592003,-0.37674 -1.879601,-1.04773 -0.287602,-0.67099 -0.416392,-1.49873 -0.38637,-2.48322 -0.03002,-0.98448 0.09877,-1.81222 0.38637,-2.48322 0.287599,-0.67098 0.914132,-1.02023 1.879601,-1.04774 0.965462,0.0275 1.591995,0.37676 1.879601,1.04774 0.287594,0.671 0.416384,1.49874 0.38637,2.48322 z"
         id="path3002"
         inkscape:connector-curvature="0"
         style="fill:#ffffff;fill-opacity:1" />
      <path
         d="m 92.587412,199.67681 -2.749965,0 0,0.72599 2.749965,0 z"
         id="path3004"
         inkscape:connector-curvature="0"
         style="fill:#ffffff;fill-opacity:1" />
      <path
         d="m 97.36295,200.0178 0,0.308 -1.473981,0.088 c -0.788096,0.0825 -1.312881,0.28325 -1.574355,0.60224 -0.261477,0.319 -0.382017,0.69025 -0.36162,1.11374 -0.0089,0.47803 0.135434,0.8887 0.433119,1.23198 0.297682,0.34329 0.8023,0.52295 1.513856,0.53899 0.277972,-2.2e-4 0.55801,-0.0465 0.840114,-0.13887 0.282096,-0.0923 0.548384,-0.22939 0.798864,-0.41112 l 0.164998,0.44 0.428995,0 0,-3.76196 c 0.01649,-0.55823 -0.123754,-1.00373 -0.420745,-1.33648 -0.297,-0.33274 -0.849743,-0.50324 -1.658228,-0.51149 -0.2695,-6.8e-4 -0.549996,0.0227 -0.84149,0.0701 -0.291498,0.0474 -0.560994,0.12307 -0.808489,0.22687 l 0,0.66 c 0.210371,-0.074 0.446867,-0.13773 0.70949,-0.19113 0.26262,-0.0534 0.576116,-0.0813 0.940489,-0.0839 0.502094,-0.002 0.848131,0.0901 1.038111,0.27637 0.189973,0.18632 0.280263,0.47919 0.270872,0.87861 z m 0,0.84699 0,1.91398 c -0.229856,0.13864 -0.454894,0.24635 -0.675117,0.32312 -0.220229,0.0768 -0.475517,0.11573 -0.765865,0.11687 -0.506683,-0.0144 -0.835304,-0.13406 -0.985862,-0.35887 -0.150563,-0.22481 -0.217937,-0.46818 -0.202122,-0.73011 -0.01261,-0.27225 0.05385,-0.51424 0.199372,-0.72599 0.145517,-0.21175 0.445721,-0.34375 0.900613,-0.396 z"
         id="path3006"
         inkscape:connector-curvature="0"
         style="fill:#ffffff;fill-opacity:1" />
      <path
         d="m 102.20726,203.90075 c 0.86875,-0.0202 1.46595,-0.29882 1.7916,-0.83598 0.32564,-0.53716 0.48009,-1.21182 0.46337,-2.02398 0.0167,-0.81215 -0.13773,-1.48681 -0.46337,-2.02397 -0.32565,-0.53716 -0.92285,-0.81582 -1.7916,-0.83599 -0.29563,6.9e-4 -0.58437,0.0488 -0.86624,0.14437 -0.28187,0.0956 -0.56512,0.23444 -0.84974,0.41662 l -0.165,-0.45099 -0.428992,0 0,8.24989 0.769992,0 0,-3.09096 c 0.23947,0.15354 0.49201,0.26721 0.75761,0.341 0.2656,0.0738 0.52639,0.11045 0.78237,0.10999 z m -0.94599,-0.79198 c -0.231,-0.0752 -0.429,-0.15584 -0.59399,-0.242 l 0,-3.65195 c 0.20716,-0.11573 0.42807,-0.20327 0.66274,-0.26263 0.23466,-0.0593 0.52707,-0.0891 0.87724,-0.0894 0.63936,0.0227 1.05186,0.24956 1.23748,0.68062 0.18562,0.43106 0.26812,0.93017 0.2475,1.49735 0.0206,0.56718 -0.0619,1.0663 -0.2475,1.49736 -0.18562,0.43106 -0.59812,0.65793 -1.23748,0.68061 -0.19686,2.3e-4 -0.3724,-0.008 -0.52662,-0.0261 -0.15423,-0.0177 -0.29402,-0.0456 -0.41937,-0.0839 z"
         id="path3008"
         inkscape:connector-curvature="0"
         style="fill:#ffffff;fill-opacity:1" />
      <path
         d="m 108.41624,203.90075 c 0.86876,-0.0202 1.46596,-0.29882 1.7916,-0.83598 0.32564,-0.53716 0.4801,-1.21182 0.46337,-2.02398 0.0167,-0.81215 -0.13773,-1.48681 -0.46337,-2.02397 -0.32564,-0.53716 -0.92284,-0.81582 -1.7916,-0.83599 -0.29562,6.9e-4 -0.58437,0.0488 -0.86624,0.14437 -0.28187,0.0956 -0.56512,0.23444 -0.84973,0.41662 l -0.165,-0.45099 -0.429,0 0,8.24989 0.76999,0 0,-3.09096 c 0.23948,0.15354 0.49202,0.26721 0.75762,0.341 0.2656,0.0738 0.52638,0.11045 0.78236,0.10999 z m -0.94598,-0.79198 c -0.231,-0.0752 -0.429,-0.15584 -0.594,-0.242 l 0,-3.65195 c 0.20716,-0.11573 0.42808,-0.20327 0.66274,-0.26263 0.23467,-0.0593 0.52708,-0.0891 0.87724,-0.0894 0.63937,0.0227 1.05186,0.24956 1.23749,0.68062 0.18561,0.43106 0.26811,0.93017 0.24749,1.49735 0.0206,0.56718 -0.0619,1.0663 -0.24749,1.49736 -0.18563,0.43106 -0.59812,0.65793 -1.23749,0.68061 -0.19685,2.3e-4 -0.37239,-0.008 -0.52662,-0.0261 -0.15422,-0.0177 -0.29401,-0.0456 -0.41936,-0.0839 z"
         id="path3010"
         inkscape:connector-curvature="0"
         style="fill:#ffffff;fill-opacity:1" />
      <path
         d="m 112.20526,201.04079 c -0.0199,0.81216 0.13268,1.48682 0.45787,2.02398 0.32518,0.53716 0.94255,0.81582 1.8521,0.83598 0.27293,0.003 0.5658,-0.0172 0.87861,-0.0619 0.31281,-0.0447 0.62493,-0.13406 0.93637,-0.26812 l 0,-0.65999 c -0.26194,0.11389 -0.53281,0.1941 -0.81262,0.24062 -0.27981,0.0465 -0.61393,0.069 -1.00236,0.0674 -0.60523,-0.0163 -1.01176,-0.20097 -1.21961,-0.55411 -0.20785,-0.35314 -0.31464,-0.7771 -0.32037,-1.27186 l 3.62995,0 0,-0.352 c 0.0298,-0.81215 -0.0848,-1.48681 -0.34374,-2.02397 -0.25896,-0.53716 -0.84104,-0.81582 -1.74623,-0.83599 -0.90955,0.0202 -1.52692,0.29883 -1.8521,0.83599 -0.32519,0.53716 -0.47781,1.21182 -0.45787,2.02397 z m 2.30997,-2.17797 c 0.60842,0.0181 0.98654,0.2129 1.13436,0.58437 0.14781,0.37148 0.20968,0.81101 0.18562,1.31861 l -2.85996,0 c -0.001,-0.51241 0.10014,-0.95332 0.30387,-1.32274 0.20372,-0.36941 0.61576,-0.56282 1.23611,-0.58024 z"
         id="path3012"
         inkscape:connector-curvature="0"
         style="fill:#ffffff;fill-opacity:1" />
      <path
         d="m 121.5999,203.79076 0.76999,0 0,-3.95995 c 0.004,-0.53074 -0.14415,-0.93774 -0.44412,-1.22099 -0.29998,-0.28324 -0.77526,-0.42624 -1.42585,-0.42899 -0.29196,-2.2e-4 -0.57704,0.047 -0.85524,0.14162 -0.27821,0.0947 -0.54679,0.23811 -0.80574,0.43037 l -0.165,-0.46199 -0.429,0 0,5.49993 0.76999,0 0,-4.57594 c 0.19525,-0.11573 0.40425,-0.20327 0.627,-0.26263 0.22274,-0.0593 0.50874,-0.0891 0.85799,-0.0894 0.3442,-0.006 0.61278,0.0607 0.80574,0.19937 0.19295,0.13865 0.29103,0.38386 0.29424,0.73562 z"
         id="path3014"
         inkscape:connector-curvature="0"
         style="fill:#ffffff;fill-opacity:1" />
      <path
         d="m 126.14862,201.04079 c -0.0199,0.81216 0.13268,1.48682 0.45787,2.02398 0.32518,0.53716 0.94255,0.81582 1.8521,0.83598 0.27293,0.003 0.5658,-0.0172 0.87861,-0.0619 0.31281,-0.0447 0.62493,-0.13406 0.93636,-0.26812 l 0,-0.65999 c -0.26193,0.11389 -0.53281,0.1941 -0.81261,0.24062 -0.27981,0.0465 -0.61393,0.069 -1.00236,0.0674 -0.60523,-0.0163 -1.01176,-0.20097 -1.21961,-0.55411 -0.20785,-0.35314 -0.31464,-0.7771 -0.32037,-1.27186 l 3.62995,0 0,-0.352 c 0.0298,-0.81215 -0.0848,-1.48681 -0.34374,-2.02397 -0.25896,-0.53716 -0.84104,-0.81582 -1.74623,-0.83599 -0.90955,0.0202 -1.52692,0.29883 -1.8521,0.83599 -0.32519,0.53716 -0.47781,1.21182 -0.45787,2.02397 z m 2.30997,-2.17797 c 0.60842,0.0181 0.98654,0.2129 1.13436,0.58437 0.1478,0.37148 0.20968,0.81101 0.18562,1.31861 l -2.85996,0 c -0.001,-0.51241 0.10014,-0.95332 0.30387,-1.32274 0.20372,-0.36941 0.61576,-0.56282 1.23611,-0.58024 z"
         id="path3016"
         inkscape:connector-curvature="0"
         style="fill:#ffffff;fill-opacity:1" />
      <path
         d="m 135.21327,198.23583 c -0.10313,-0.0167 -0.20763,-0.03 -0.3135,-0.0399 -0.10588,-0.01 -0.22138,-0.0149 -0.3465,-0.0151 -0.31097,-2.2e-4 -0.61851,0.047 -0.92261,0.14162 -0.3041,0.0947 -0.58689,0.23811 -0.84836,0.43037 l -0.165,-0.46199 -0.429,0 0,5.49993 0.76999,0 0,-4.57594 c 0.19777,-0.11573 0.42098,-0.20327 0.66962,-0.26263 0.24864,-0.0593 0.55709,-0.0891 0.92536,-0.0894 0.275,0.002 0.49499,0.0312 0.66,0.088 z"
         id="path3018"
         inkscape:connector-curvature="0"
         style="fill:#ffffff;fill-opacity:1" />
      <path
         d="m 141.58003,203.27376 c -0.143,0.0128 -0.286,0.0202 -0.42899,0.022 -0.32519,0.006 -0.57681,-0.0529 -0.75487,-0.17737 -0.17806,-0.12444 -0.27843,-0.35131 -0.30112,-0.68062 l 0,-3.54195 1.70498,0 0,-0.60499 -1.70498,0 0,-1.75998 -0.76999,0.22 0,1.48498 -1.09998,0.31899 0,0.341 1.09998,0 0,3.56395 c 0.0335,0.5351 0.22779,0.91689 0.58299,1.14536 0.35521,0.22848 0.76953,0.32702 1.24299,0.29562 0.14299,0 0.28599,-0.011 0.42899,-0.033 z"
         id="path3020"
         inkscape:connector-curvature="0"
         style="fill:#ffffff;fill-opacity:1" />
      <path
         d="m 144.5528,203.90075 0,-0.62699 c -0.16844,0.003 -0.28806,-0.0309 -0.35887,-0.10312 -0.0708,-0.0722 -0.10519,-0.20281 -0.10312,-0.39187 l 0,-4.48794 -0.74799,0 0,4.39994 c 9.1e-4,0.43541 0.10358,0.74707 0.30799,0.93499 0.20442,0.18791 0.50508,0.27958 0.90199,0.27499 z m -1.44098,-7.6449 c 0.004,0.1744 0.0621,0.31786 0.17462,0.43037 0.11252,0.11253 0.25598,0.17074 0.43037,0.17463 0.17439,-0.004 0.31785,-0.0621 0.43037,-0.17463 0.11252,-0.11251 0.17073,-0.25597 0.17462,-0.43037 -0.004,-0.17438 -0.0621,-0.31784 -0.17462,-0.43037 -0.11252,-0.11251 -0.25598,-0.17072 -0.43037,-0.17462 -0.17439,0.004 -0.31785,0.0621 -0.43037,0.17462 -0.11252,0.11253 -0.17072,0.25599 -0.17462,0.43037 z"
         id="path3022"
         inkscape:connector-curvature="0"
         style="fill:#ffffff;fill-opacity:1" />
      <path
         d="m 147.51765,203.90075 0,-0.62699 c -0.16844,0.003 -0.28807,-0.0309 -0.35888,-0.10312 -0.0708,-0.0722 -0.10518,-0.20281 -0.10312,-0.39187 l 0,-7.23791 -0.74799,0 0,7.14991 c 9.2e-4,0.43541 0.10358,0.74707 0.308,0.93499 0.20441,0.18791 0.50507,0.27958 0.90199,0.27499 z"
         id="path3024"
         inkscape:connector-curvature="0"
         style="fill:#ffffff;fill-opacity:1" />
      <path
         d="m 151.04348,202.31678 c 0.81605,-0.0154 1.38117,-0.2184 1.69536,-0.60912 0.31417,-0.39072 0.46405,-0.87701 0.44961,-1.45886 0.001,-0.24291 -0.0231,-0.47207 -0.0729,-0.68749 -0.0497,-0.21541 -0.13177,-0.41157 -0.24612,-0.58849 l 0.92399,-0.264 0,-0.41799 -1.86998,0 c -0.12604,-0.0335 -0.26171,-0.06 -0.40699,-0.0797 -0.1453,-0.0197 -0.30296,-0.0298 -0.473,-0.0303 -0.81605,0.0154 -1.38117,0.2184 -1.69535,0.60912 -0.31419,0.39072 -0.46406,0.87701 -0.44962,1.45885 -0.005,0.38935 0.0596,0.74089 0.1925,1.05461 0.13291,0.31373 0.36207,0.56352 0.68749,0.74937 -0.11848,0.0937 -0.21702,0.20327 -0.29562,0.32862 -0.0786,0.12535 -0.1194,0.26514 -0.12238,0.41937 0.002,0.18012 0.0342,0.32862 0.0976,0.44549 0.0635,0.11688 0.14827,0.21038 0.25437,0.2805 l 0,0.011 c -0.30708,0.1226 -0.57016,0.29539 -0.78924,0.51837 -0.21908,0.22297 -0.33366,0.51951 -0.34375,0.88961 0.006,0.60041 0.22458,1.03582 0.6545,1.30623 0.4299,0.27041 1.03306,0.40333 1.80947,0.39875 0.78328,0.006 1.44969,-0.13796 1.99923,-0.43175 0.54953,-0.29379 0.83644,-0.7732 0.86074,-1.43823 0.002,-0.47322 -0.12009,-0.82476 -0.36575,-1.05461 -0.24567,-0.22985 -0.62608,-0.36964 -1.14124,-0.41937 l -1.86997,-0.21999 c -0.14254,-0.0151 -0.24796,-0.0564 -0.31625,-0.12375 -0.0683,-0.0674 -0.10221,-0.16913 -0.10175,-0.30525 0.001,-0.0671 0.0209,-0.13635 0.0591,-0.20762 0.0383,-0.0713 0.0882,-0.13773 0.14987,-0.19937 0.209,0.044 0.45099,0.066 0.72599,0.066 z m 1.19899,1.60597 c 0.33068,0.0344 0.56305,0.11688 0.69711,0.2475 0.13406,0.13062 0.19868,0.33412 0.19388,0.61049 -0.0183,0.45856 -0.22917,0.77343 -0.6325,0.94462 -0.40333,0.17118 -0.88916,0.2523 -1.45748,0.24337 -0.56672,0.008 -0.99251,-0.0605 -1.27736,-0.20625 -0.28485,-0.14575 -0.42739,-0.418 -0.42762,-0.81674 0.0108,-0.34672 0.14048,-0.61301 0.38912,-0.79886 0.24864,-0.18586 0.5516,-0.3229 0.90887,-0.41112 z m -1.19899,-2.28797 c -0.62264,-0.0124 -1.02184,-0.15262 -1.19761,-0.42074 -0.17577,-0.26812 -0.25323,-0.58986 -0.23237,-0.96524 -0.0208,-0.37536 0.0566,-0.69711 0.23237,-0.96524 0.17577,-0.26811 0.57497,-0.40836 1.19761,-0.42074 0.62264,0.0124 1.02184,0.15263 1.19761,0.42074 0.17577,0.26813 0.25322,0.58988 0.23237,0.96524 0.0209,0.37538 -0.0566,0.69712 -0.23237,0.96524 -0.17577,0.26812 -0.57497,0.40837 -1.19761,0.42074 z"
         id="path3026"
         inkscape:connector-curvature="0"
         style="fill:#ffffff;fill-opacity:1" />
      <path
         d="m 153.79421,206.65072 c 0.52776,-0.0277 1.01222,-0.19227 1.45336,-0.49362 0.44114,-0.30135 0.67534,-0.73814 0.70261,-1.31036 l 0,-6.55591 -0.74799,0 0,6.45691 c -0.0181,0.41731 -0.17164,0.72118 -0.46062,0.91162 -0.28897,0.19043 -0.60476,0.30455 -0.94736,0.34237 z m 1.17699,-10.39487 c 0.004,0.1744 0.0621,0.31786 0.17462,0.43037 0.11252,0.11253 0.25597,0.17074 0.43037,0.17463 0.17439,-0.004 0.31785,-0.0621 0.43037,-0.17463 0.11251,-0.11251 0.17072,-0.25597 0.17462,-0.43037 -0.004,-0.17438 -0.0621,-0.31784 -0.17462,-0.43037 -0.11252,-0.11251 -0.25598,-0.17072 -0.43037,-0.17462 -0.1744,0.004 -0.31785,0.0621 -0.43037,0.17462 -0.11252,0.11253 -0.17073,0.25599 -0.17462,0.43037 z"
         id="path3028"
         inkscape:connector-curvature="0"
         style="fill:#ffffff;fill-opacity:1" />
      <path
         d="m 157.77362,201.04079 c -0.0199,0.81216 0.13268,1.48682 0.45787,2.02398 0.32518,0.53716 0.94255,0.81582 1.8521,0.83598 0.27293,0.003 0.5658,-0.0172 0.87861,-0.0619 0.31281,-0.0447 0.62493,-0.13406 0.93636,-0.26812 l 0,-0.65999 c -0.26193,0.11389 -0.53281,0.1941 -0.81261,0.24062 -0.27981,0.0465 -0.61393,0.069 -1.00236,0.0674 -0.60523,-0.0163 -1.01176,-0.20097 -1.21961,-0.55411 -0.20785,-0.35314 -0.31464,-0.7771 -0.32037,-1.27186 l 3.62995,0 0,-0.352 c 0.0298,-0.81215 -0.0848,-1.48681 -0.34374,-2.02397 -0.25896,-0.53716 -0.84104,-0.81582 -1.74623,-0.83599 -0.90955,0.0202 -1.52692,0.29883 -1.8521,0.83599 -0.32519,0.53716 -0.47781,1.21182 -0.45787,2.02397 z m 2.30997,-2.17797 c 0.60842,0.0181 0.98654,0.2129 1.13436,0.58437 0.1478,0.37148 0.20968,0.81101 0.18562,1.31861 l -2.85996,0 c -0.001,-0.51241 0.10014,-0.95332 0.30387,-1.32274 0.20372,-0.36941 0.61576,-0.56282 1.23611,-0.58024 z"
         id="path3030"
         inkscape:connector-curvature="0"
         style="fill:#ffffff;fill-opacity:1" />
      <path
         d="m 167.16826,203.79076 0.76999,0 0,-3.95995 c 0.004,-0.53074 -0.14415,-0.93774 -0.44412,-1.22099 -0.29998,-0.28324 -0.77526,-0.42624 -1.42586,-0.42899 -0.29195,-2.2e-4 -0.57703,0.047 -0.85523,0.14162 -0.27821,0.0947 -0.54679,0.23811 -0.80574,0.43037 l -0.165,-0.46199 -0.429,0 0,5.49993 0.76999,0 0,-4.57594 c 0.19525,-0.11573 0.40425,-0.20327 0.627,-0.26263 0.22274,-0.0593 0.50874,-0.0891 0.85798,-0.0894 0.34421,-0.006 0.61278,0.0607 0.80574,0.19937 0.19296,0.13865 0.29104,0.38386 0.29425,0.73562 z"
         id="path3032"
         inkscape:connector-curvature="0"
         style="fill:#ffffff;fill-opacity:1" />
      <path
         d="m 171.58254,202.31678 c 0.81605,-0.0154 1.38117,-0.2184 1.69536,-0.60912 0.31418,-0.39072 0.46405,-0.87701 0.44962,-1.45886 0.001,-0.24291 -0.0231,-0.47207 -0.0729,-0.68749 -0.0497,-0.21541 -0.13177,-0.41157 -0.24612,-0.58849 l 0.92399,-0.264 0,-0.41799 -1.86998,0 c -0.12604,-0.0335 -0.26171,-0.06 -0.40699,-0.0797 -0.14529,-0.0197 -0.30296,-0.0298 -0.473,-0.0303 -0.81605,0.0154 -1.38117,0.2184 -1.69535,0.60912 -0.31418,0.39072 -0.46406,0.87701 -0.44962,1.45885 -0.005,0.38935 0.0596,0.74089 0.1925,1.05461 0.13291,0.31373 0.36208,0.56352 0.68749,0.74937 -0.11848,0.0937 -0.21702,0.20327 -0.29562,0.32862 -0.0786,0.12535 -0.1194,0.26514 -0.12237,0.41937 0.002,0.18012 0.0341,0.32862 0.0976,0.44549 0.0635,0.11688 0.14827,0.21038 0.25437,0.2805 l 0,0.011 c -0.30708,0.1226 -0.57016,0.29539 -0.78924,0.51837 -0.21908,0.22297 -0.33366,0.51951 -0.34374,0.88961 0.006,0.60041 0.22458,1.03582 0.65449,1.30623 0.42991,0.27041 1.03307,0.40333 1.80947,0.39875 0.78328,0.006 1.44969,-0.13796 1.99923,-0.43175 0.54953,-0.29379 0.83644,-0.7732 0.86074,-1.43823 0.002,-0.47322 -0.12009,-0.82476 -0.36575,-1.05461 -0.24567,-0.22985 -0.62608,-0.36964 -1.14123,-0.41937 l -1.86998,-0.21999 c -0.14254,-0.0151 -0.24796,-0.0564 -0.31624,-0.12375 -0.0683,-0.0674 -0.10221,-0.16913 -0.10175,-0.30525 0.001,-0.0671 0.0208,-0.13635 0.0591,-0.20762 0.0383,-0.0713 0.0882,-0.13773 0.14987,-0.19937 0.209,0.044 0.451,0.066 0.72599,0.066 z m 1.19899,1.60597 c 0.33068,0.0344 0.56305,0.11688 0.69711,0.2475 0.13406,0.13062 0.19868,0.33412 0.19388,0.61049 -0.0183,0.45856 -0.22917,0.77343 -0.63249,0.94462 -0.40334,0.17118 -0.88916,0.2523 -1.45749,0.24337 -0.56672,0.008 -0.99251,-0.0605 -1.27735,-0.20625 -0.28486,-0.14575 -0.4274,-0.418 -0.42762,-0.81674 0.0108,-0.34672 0.14047,-0.61301 0.38912,-0.79886 0.24864,-0.18586 0.55159,-0.3229 0.90886,-0.41112 z m -1.19899,-2.28797 c -0.62264,-0.0124 -1.02184,-0.15262 -1.19761,-0.42074 -0.17577,-0.26812 -0.25322,-0.58986 -0.23237,-0.96524 -0.0208,-0.37536 0.0566,-0.69711 0.23238,-0.96524 0.17576,-0.26811 0.57496,-0.40836 1.1976,-0.42074 0.62264,0.0124 1.02184,0.15263 1.19761,0.42074 0.17577,0.26813 0.25323,0.58988 0.23238,0.96524 0.0208,0.37538 -0.0566,0.69712 -0.23238,0.96524 -0.17577,0.26812 -0.57497,0.40837 -1.19761,0.42074 z"
         id="path3034"
         inkscape:connector-curvature="0"
         style="fill:#ffffff;fill-opacity:1" />
      <path
         d="m 175.45526,201.04079 c -0.0199,0.81216 0.13268,1.48682 0.45787,2.02398 0.32518,0.53716 0.94255,0.81582 1.8521,0.83598 0.27293,0.003 0.5658,-0.0172 0.87861,-0.0619 0.31281,-0.0447 0.62493,-0.13406 0.93637,-0.26812 l 0,-0.65999 c -0.26194,0.11389 -0.53281,0.1941 -0.81262,0.24062 -0.27981,0.0465 -0.61393,0.069 -1.00236,0.0674 -0.60523,-0.0163 -1.01176,-0.20097 -1.21961,-0.55411 -0.20785,-0.35314 -0.31464,-0.7771 -0.32037,-1.27186 l 3.62995,0 0,-0.352 c 0.0298,-0.81215 -0.0848,-1.48681 -0.34374,-2.02397 -0.25896,-0.53716 -0.84104,-0.81582 -1.74623,-0.83599 -0.90955,0.0202 -1.52692,0.29883 -1.8521,0.83599 -0.32519,0.53716 -0.47781,1.21182 -0.45787,2.02397 z m 2.30997,-2.17797 c 0.60842,0.0181 0.98654,0.2129 1.13436,0.58437 0.14781,0.37148 0.20968,0.81101 0.18562,1.31861 l -2.85996,0 c -10e-4,-0.51241 0.10014,-0.95332 0.30387,-1.32274 0.20372,-0.36941 0.61576,-0.56282 1.23611,-0.58024 z"
         id="path3036"
         inkscape:connector-curvature="0"
         style="fill:#ffffff;fill-opacity:1" />
      <path
         d="m 182.88093,203.90075 0,-0.62699 c -0.16844,0.003 -0.28806,-0.0309 -0.35887,-0.10312 -0.0708,-0.0722 -0.10519,-0.20281 -0.10313,-0.39187 l 0,-7.23791 -0.74799,0 0,7.14991 c 9.2e-4,0.43541 0.10358,0.74707 0.308,0.93499 0.20441,0.18791 0.50507,0.27958 0.90199,0.27499 z"
         id="path3038"
         inkscape:connector-curvature="0"
         style="fill:#ffffff;fill-opacity:1" />
      <path
         d="m 185.84577,203.90075 0,-0.62699 c -0.16844,0.003 -0.28806,-0.0309 -0.35887,-0.10312 -0.0708,-0.0722 -0.10519,-0.20281 -0.10312,-0.39187 l 0,-4.48794 -0.74799,0 0,4.39994 c 9.1e-4,0.43541 0.10358,0.74707 0.30799,0.93499 0.20441,0.18791 0.50508,0.27958 0.90199,0.27499 z m -1.44098,-7.6449 c 0.004,0.1744 0.0621,0.31786 0.17462,0.43037 0.11252,0.11253 0.25598,0.17074 0.43037,0.17463 0.17439,-0.004 0.31785,-0.0621 0.43037,-0.17463 0.11252,-0.11251 0.17073,-0.25597 0.17462,-0.43037 -0.004,-0.17438 -0.0621,-0.31784 -0.17462,-0.43037 -0.11252,-0.11251 -0.25598,-0.17072 -0.43037,-0.17462 -0.17439,0.004 -0.31785,0.0621 -0.43037,0.17462 -0.11252,0.11253 -0.17073,0.25599 -0.17462,0.43037 z"
         id="path3040"
         inkscape:connector-curvature="0"
         style="fill:#ffffff;fill-opacity:1" />
      <path
         d="m 189.37161,202.31678 c 0.81605,-0.0154 1.38116,-0.2184 1.69535,-0.60912 0.31418,-0.39072 0.46405,-0.87701 0.44962,-1.45886 0.001,-0.24291 -0.0232,-0.47207 -0.0729,-0.68749 -0.0497,-0.21541 -0.13178,-0.41157 -0.24613,-0.58849 l 0.92399,-0.264 0,-0.41799 -1.86997,0 c -0.12605,-0.0335 -0.26171,-0.06 -0.407,-0.0797 -0.14529,-0.0197 -0.30296,-0.0298 -0.47299,-0.0303 -0.81606,0.0154 -1.38117,0.2184 -1.69536,0.60912 -0.31418,0.39072 -0.46405,0.87701 -0.44962,1.45885 -0.005,0.38935 0.0596,0.74089 0.1925,1.05461 0.13292,0.31373 0.36208,0.56352 0.68749,0.74937 -0.11848,0.0937 -0.21702,0.20327 -0.29562,0.32862 -0.0786,0.12535 -0.11939,0.26514 -0.12237,0.41937 0.002,0.18012 0.0341,0.32862 0.0976,0.44549 0.0635,0.11688 0.14827,0.21038 0.25437,0.2805 l 0,0.011 c -0.30708,0.1226 -0.57016,0.29539 -0.78924,0.51837 -0.21908,0.22297 -0.33366,0.51951 -0.34374,0.88961 0.006,0.60041 0.22458,1.03582 0.65449,1.30623 0.42991,0.27041 1.03307,0.40333 1.80948,0.39875 0.78328,0.006 1.44968,-0.13796 1.99922,-0.43175 0.54953,-0.29379 0.83644,-0.7732 0.86074,-1.43823 0.002,-0.47322 -0.12009,-0.82476 -0.36575,-1.05461 -0.24566,-0.22985 -0.62608,-0.36964 -1.14123,-0.41937 l -1.86998,-0.21999 c -0.14254,-0.0151 -0.24795,-0.0564 -0.31624,-0.12375 -0.0683,-0.0674 -0.10221,-0.16913 -0.10175,-0.30525 0.001,-0.0671 0.0208,-0.13635 0.0591,-0.20762 0.0383,-0.0713 0.0882,-0.13773 0.14988,-0.19937 0.20899,0.044 0.45099,0.066 0.72599,0.066 z m 1.19898,1.60597 c 0.33068,0.0344 0.56305,0.11688 0.69712,0.2475 0.13405,0.13062 0.19868,0.33412 0.19387,0.61049 -0.0183,0.45856 -0.22917,0.77343 -0.63249,0.94462 -0.40333,0.17118 -0.88916,0.2523 -1.45748,0.24337 -0.56673,0.008 -0.99251,-0.0605 -1.27736,-0.20625 -0.28485,-0.14575 -0.42739,-0.418 -0.42762,-0.81674 0.0108,-0.34672 0.14047,-0.61301 0.38912,-0.79886 0.24864,-0.18586 0.55159,-0.3229 0.90886,-0.41112 z m -1.19898,-2.28797 c -0.62264,-0.0124 -1.02185,-0.15262 -1.19761,-0.42074 -0.17577,-0.26812 -0.25323,-0.58986 -0.23237,-0.96524 -0.0209,-0.37536 0.0566,-0.69711 0.23237,-0.96524 0.17576,-0.26811 0.57497,-0.40836 1.19761,-0.42074 0.62263,0.0124 1.02183,0.15263 1.19761,0.42074 0.17576,0.26813 0.25322,0.58988 0.23237,0.96524 0.0208,0.37538 -0.0566,0.69712 -0.23237,0.96524 -0.17578,0.26812 -0.57498,0.40837 -1.19761,0.42074 z"
         id="path3042"
         inkscape:connector-curvature="0"
         style="fill:#ffffff;fill-opacity:1" />
      <path
         d="m 198.92268,195.50786 c -0.1139,-0.0273 -0.24085,-0.047 -0.38087,-0.0591 -0.14002,-0.0121 -0.26973,-0.0181 -0.38912,-0.0179 -0.68405,0.003 -1.18592,0.14576 -1.5056,0.429 -0.31969,0.28325 -0.47781,0.69025 -0.47437,1.22098 l 0,1.15499 -1.09999,0.31899 0,0.341 1.09999,0 0,4.89494 0.73699,0 0,-4.89494 1.73798,0 0,-0.60499 -1.73798,0 0,-1.20999 c 0.007,-0.35313 0.12489,-0.60384 0.35337,-0.75211 0.22847,-0.14826 0.52501,-0.22022 0.88961,-0.21587 0.16752,2.3e-4 0.31097,0.008 0.43037,0.0234 0.11939,0.0154 0.2326,0.0369 0.33962,0.0646 z"
         id="path3044"
         inkscape:connector-curvature="0"
         style="fill:#ffffff;fill-opacity:1" />
      <path
         d="m 204.52442,201.04079 c 0.022,-0.85546 -0.12651,-1.5425 -0.4455,-2.0611 -0.319,-0.51859 -0.94049,-0.78488 -1.86447,-0.79886 -0.91918,0.014 -1.5393,0.28027 -1.86035,0.79886 -0.32106,0.51861 -0.47094,1.20564 -0.44962,2.0611 -0.0213,0.85547 0.12856,1.5425 0.44962,2.0611 0.32105,0.5186 0.94117,0.78489 1.86035,0.79886 0.92398,-0.014 1.54547,-0.28026 1.86447,-0.79886 0.31899,-0.5186 0.46749,-1.20563 0.4455,-2.0611 z m -0.76999,0 c 0.0252,0.63456 -0.0527,1.15293 -0.23375,1.55511 -0.18104,0.40218 -0.61645,0.6098 -1.30623,0.62286 -0.69941,-0.0131 -1.13757,-0.22068 -1.31449,-0.62286 -0.17691,-0.40218 -0.25208,-0.92055 -0.22549,-1.55511 -0.0266,-0.63455 0.0486,-1.15292 0.22549,-1.5551 0.17692,-0.40218 0.61508,-0.6098 1.31449,-0.62287 0.68978,0.0131 1.12519,0.22069 1.30623,0.62287 0.18104,0.40218 0.25895,0.92055 0.23375,1.5551 z"
         id="path3046"
         inkscape:connector-curvature="0"
         style="fill:#ffffff;fill-opacity:1" />
      <path
         d="m 209.20545,198.23583 c -0.10313,-0.0167 -0.20762,-0.03 -0.31349,-0.0399 -0.10588,-0.01 -0.22138,-0.0149 -0.3465,-0.0151 -0.31098,-2.2e-4 -0.61851,0.047 -0.92261,0.14162 -0.3041,0.0947 -0.58689,0.23811 -0.84837,0.43037 l -0.16499,-0.46199 -0.429,0 0,5.49993 0.76999,0 0,-4.57594 c 0.19777,-0.11573 0.42097,-0.20327 0.66962,-0.26263 0.24864,-0.0593 0.55709,-0.0891 0.92536,-0.0894 0.27499,0.002 0.49499,0.0312 0.65999,0.088 z"
         id="path3048"
         inkscape:connector-curvature="0"
         style="fill:#ffffff;fill-opacity:1" />
      <path
         d="m 214.07624,203.90075 0,-0.62699 c -0.16844,0.003 -0.28806,-0.0309 -0.35887,-0.10312 -0.0708,-0.0722 -0.10519,-0.20281 -0.10312,-0.39187 l 0,-4.48794 -0.748,0 0,4.39994 c 9.2e-4,0.43541 0.10359,0.74707 0.308,0.93499 0.20441,0.18791 0.50508,0.27958 0.90199,0.27499 z m -1.44098,-7.6449 c 0.004,0.1744 0.0621,0.31786 0.17462,0.43037 0.11252,0.11253 0.25598,0.17074 0.43037,0.17463 0.17439,-0.004 0.31785,-0.0621 0.43037,-0.17463 0.11252,-0.11251 0.17072,-0.25597 0.17462,-0.43037 -0.004,-0.17438 -0.0621,-0.31784 -0.17462,-0.43037 -0.11252,-0.11251 -0.25598,-0.17072 -0.43037,-0.17462 -0.17439,0.004 -0.31785,0.0621 -0.43037,0.17462 -0.11252,0.11253 -0.17073,0.25599 -0.17462,0.43037 z"
         id="path3050"
         inkscape:connector-curvature="0"
         style="fill:#ffffff;fill-opacity:1" />
      <path
         d="m 216.54609,200.4908 1.73798,0 c 1.01496,-0.0227 1.73224,-0.27431 2.15184,-0.75487 0.4196,-0.48055 0.62264,-1.05392 0.60912,-1.7201 0.0135,-0.66617 -0.18952,-1.23954 -0.60912,-1.7201 -0.4196,-0.48055 -1.13688,-0.73217 -2.15184,-0.75487 l -2.51897,0 0,8.2499 0.78099,0 z m 0,-4.22395 1.78198,0 c 0.75554,0.0234 1.25741,0.21588 1.5056,0.5775 0.24818,0.36162 0.3623,0.75212 0.34237,1.17148 0.0199,0.41938 -0.0942,0.80987 -0.34237,1.17149 -0.24819,0.36162 -0.75006,0.55412 -1.5056,0.57749 l -1.78198,0 z"
         id="path3052"
         inkscape:connector-curvature="0"
         style="fill:#ffffff;fill-opacity:1" />
      <path
         d="m 225.8206,199.79781 0,3.99295 0.76999,0 0,-3.95995 c 0.004,-0.53074 -0.14414,-0.93774 -0.44411,-1.22099 -0.29998,-0.28324 -0.77527,-0.42624 -1.42586,-0.42899 -0.25461,-4.5e-4 -0.50989,0.0362 -0.76587,0.11 -0.25597,0.0738 -0.50301,0.18746 -0.74111,0.34099 l 0,-3.09096 -0.74799,0 0,8.2499 0.74799,0 0,-4.57594 c 0.19616,-0.11573 0.40882,-0.20327 0.63799,-0.26263 0.22916,-0.0593 0.51882,-0.0891 0.86899,-0.0894 0.3442,-0.006 0.61278,0.0607 0.80574,0.19937 0.19295,0.13865 0.29103,0.38386 0.29424,0.73562 z"
         id="path3054"
         inkscape:connector-curvature="0"
         style="fill:#ffffff;fill-opacity:1" />
      <path
         d="m 232.79786,201.04079 c 0.022,-0.85546 -0.12651,-1.5425 -0.4455,-2.0611 -0.319,-0.51859 -0.94049,-0.78488 -1.86448,-0.79886 -0.91917,0.014 -1.53929,0.28027 -1.86035,0.79886 -0.32106,0.51861 -0.47093,1.20564 -0.44962,2.0611 -0.0213,0.85547 0.12856,1.5425 0.44962,2.0611 0.32106,0.5186 0.94118,0.78489 1.86035,0.79886 0.92399,-0.014 1.54548,-0.28026 1.86448,-0.79886 0.31899,-0.5186 0.46749,-1.20563 0.4455,-2.0611 z m -0.76999,0 c 0.0252,0.63456 -0.0527,1.15293 -0.23375,1.55511 -0.18105,0.40218 -0.61646,0.6098 -1.30624,0.62286 -0.69941,-0.0131 -1.13757,-0.22068 -1.31448,-0.62286 -0.17691,-0.40218 -0.25208,-0.92055 -0.2255,-1.55511 -0.0266,-0.63455 0.0486,-1.15292 0.2255,-1.5551 0.17691,-0.40218 0.61507,-0.6098 1.31448,-0.62287 0.68978,0.0131 1.12519,0.22069 1.30624,0.62287 0.18103,0.40218 0.25895,0.92055 0.23375,1.5551 z"
         id="path3056"
         inkscape:connector-curvature="0"
         style="fill:#ffffff;fill-opacity:1" />
      <path
         d="m 237.80889,203.79076 0.76999,0 0,-3.95995 c 0.004,-0.53074 -0.14415,-0.93774 -0.44412,-1.22099 -0.29998,-0.28324 -0.77527,-0.42624 -1.42586,-0.42899 -0.29196,-2.2e-4 -0.57704,0.047 -0.85524,0.14162 -0.27821,0.0947 -0.54679,0.23811 -0.80574,0.43037 l -0.165,-0.46199 -0.42899,0 0,5.49993 0.76999,0 0,-4.57594 c 0.19524,-0.11573 0.40424,-0.20327 0.62699,-0.26263 0.22275,-0.0593 0.50874,-0.0891 0.85799,-0.0894 0.3442,-0.006 0.61278,0.0607 0.80574,0.19937 0.19295,0.13865 0.29103,0.38386 0.29425,0.73562 z"
         id="path3058"
         inkscape:connector-curvature="0"
         style="fill:#ffffff;fill-opacity:1" />
      <path
         d="m 240.1662,201.04079 c -0.0199,0.81216 0.13268,1.48682 0.45787,2.02398 0.32518,0.53716 0.94254,0.81582 1.8521,0.83598 0.27293,0.003 0.5658,-0.0172 0.87861,-0.0619 0.3128,-0.0447 0.62492,-0.13406 0.93636,-0.26812 l 0,-0.65999 c -0.26194,0.11389 -0.53281,0.1941 -0.81261,0.24062 -0.27981,0.0465 -0.61393,0.069 -1.00236,0.0674 -0.60523,-0.0163 -1.01176,-0.20097 -1.21961,-0.55411 -0.20786,-0.35314 -0.31465,-0.7771 -0.32037,-1.27186 l 3.62995,0 0,-0.352 c 0.0298,-0.81215 -0.0848,-1.48681 -0.34375,-2.02397 -0.25896,-0.53716 -0.84103,-0.81582 -1.74622,-0.83599 -0.90956,0.0202 -1.52692,0.29883 -1.85211,0.83599 -0.32518,0.53716 -0.4778,1.21182 -0.45786,2.02397 z m 2.30997,-2.17797 c 0.60842,0.0181 0.98654,0.2129 1.13436,0.58437 0.1478,0.37148 0.20968,0.81101 0.18562,1.31861 l -2.85996,0 c -0.001,-0.51241 0.10014,-0.95332 0.30387,-1.32274 0.20372,-0.36941 0.61576,-0.56282 1.23611,-0.58024 z"
         id="path3060"
         inkscape:connector-curvature="0"
         style="fill:#ffffff;fill-opacity:1" />
      <path
         d="m 246.40388,205.04474 0.67099,-1.45198 c 0.022,-0.0447 0.0385,-0.0928 0.0495,-0.14437 0.011,-0.0516 0.0165,-0.10244 0.0165,-0.15263 -0.005,-0.17439 -0.0642,-0.31785 -0.17875,-0.43037 -0.11458,-0.11252 -0.25666,-0.17072 -0.42624,-0.17462 -0.16958,0.004 -0.31167,0.0621 -0.42625,0.17462 -0.11458,0.11252 -0.17416,0.25598 -0.17874,0.43037 6.8e-4,0.12329 0.0323,0.23421 0.0949,0.33275 0.0626,0.0985 0.15193,0.17095 0.26812,0.21725 l -0.275,1.19898 z"
         id="path3062"
         inkscape:connector-curvature="0"
         style="fill:#ffffff;fill-opacity:1" />
      <path
         d="m 252.211,203.90075 0,-0.62699 c -0.16843,0.003 -0.28806,-0.0309 -0.35887,-0.10312 -0.0708,-0.0722 -0.10518,-0.20281 -0.10312,-0.39187 l 0,-4.48794 -0.74799,0 0,4.39994 c 9.2e-4,0.43541 0.10358,0.74707 0.308,0.93499 0.20441,0.18791 0.50507,0.27958 0.90198,0.27499 z m -1.44098,-7.6449 c 0.004,0.1744 0.0621,0.31786 0.17463,0.43037 0.11251,0.11253 0.25597,0.17074 0.43037,0.17463 0.17439,-0.004 0.31784,-0.0621 0.43036,-0.17463 0.11252,-0.11251 0.17073,-0.25597 0.17463,-0.43037 -0.004,-0.17438 -0.0621,-0.31784 -0.17462,-0.43037 -0.11253,-0.11251 -0.25598,-0.17072 -0.43037,-0.17462 -0.1744,0.004 -0.31786,0.0621 -0.43037,0.17462 -0.11252,0.11253 -0.17073,0.25599 -0.17463,0.43037 z"
         id="path3064"
         inkscape:connector-curvature="0"
         style="fill:#ffffff;fill-opacity:1" />
      <path
         d="m 254.68085,200.4908 1.73798,0 c 1.01496,-0.0227 1.73225,-0.27431 2.15185,-0.75487 0.41959,-0.48055 0.62263,-1.05392 0.60912,-1.7201 0.0135,-0.66617 -0.18953,-1.23954 -0.60912,-1.7201 -0.4196,-0.48055 -1.13689,-0.73217 -2.15185,-0.75487 l -2.51896,0 0,8.2499 0.78098,0 z m 0,-4.22395 1.78198,0 c 0.75555,0.0234 1.25742,0.21588 1.50561,0.5775 0.24818,0.36162 0.3623,0.75212 0.34237,1.17148 0.0199,0.41938 -0.0942,0.80987 -0.34237,1.17149 -0.24819,0.36162 -0.75006,0.55412 -1.50561,0.57749 l -1.78198,0 z"
         id="path3066"
         inkscape:connector-curvature="0"
         style="fill:#ffffff;fill-opacity:1" />
      <path
         d="m 263.84537,200.0178 0,0.308 -1.47398,0.088 c -0.7881,0.0825 -1.31288,0.28325 -1.57435,0.60224 -0.26148,0.319 -0.38202,0.69025 -0.36162,1.11374 -0.009,0.47803 0.13543,0.8887 0.43311,1.23198 0.29769,0.34329 0.8023,0.52295 1.51386,0.53899 0.27797,-2.2e-4 0.55801,-0.0465 0.84011,-0.13887 0.2821,-0.0923 0.54839,-0.22939 0.79887,-0.41112 l 0.165,0.44 0.42899,0 0,-3.76196 c 0.0165,-0.55823 -0.12375,-1.00373 -0.42074,-1.33648 -0.297,-0.33274 -0.84975,-0.50324 -1.65823,-0.51149 -0.2695,-6.8e-4 -0.55,0.0227 -0.84149,0.0701 -0.2915,0.0474 -0.561,0.12307 -0.80849,0.22687 l 0,0.66 c 0.21037,-0.074 0.44687,-0.13773 0.70949,-0.19113 0.26262,-0.0534 0.57612,-0.0813 0.94049,-0.0839 0.50209,-0.002 0.84813,0.0901 1.03811,0.27637 0.18997,0.18632 0.28026,0.47919 0.27087,0.87861 z m 0,0.84699 0,1.91398 c -0.22985,0.13864 -0.45489,0.24635 -0.67512,0.32312 -0.22022,0.0768 -0.47551,0.11573 -0.76586,0.11687 -0.50668,-0.0144 -0.8353,-0.13406 -0.98586,-0.35887 -0.15056,-0.22481 -0.21794,-0.46818 -0.20212,-0.73011 -0.0126,-0.27225 0.0539,-0.51424 0.19937,-0.72599 0.14552,-0.21175 0.44572,-0.34375 0.90061,-0.396 z"
         id="path3068"
         inkscape:connector-curvature="0"
         style="fill:#ffffff;fill-opacity:1" />
      <path
         d="m 268.52468,198.18083 c -0.86876,0.0202 -1.46596,0.29883 -1.7916,0.83599 -0.32564,0.53716 -0.4801,1.21182 -0.46337,2.02397 -0.0167,0.81216 0.13773,1.48682 0.46337,2.02398 0.32564,0.53716 0.92284,0.81582 1.7916,0.83598 0.29562,-6.8e-4 0.58437,-0.0488 0.86624,-0.14437 0.28187,-0.0956 0.56511,-0.23443 0.84974,-0.41662 l 0.165,0.451 0.42899,0 0,-8.2499 -0.76999,0 0,3.09096 c -0.25804,-0.14872 -0.5147,-0.26101 -0.76999,-0.33687 -0.25529,-0.0759 -0.51195,-0.11389 -0.76999,-0.11412 z m 0.94599,0.79199 c 0.1045,0.0376 0.20624,0.0752 0.30525,0.11275 0.099,0.0376 0.19524,0.0807 0.28874,0.12925 l 0,3.65195 c -0.22848,0.12535 -0.45902,0.21564 -0.69161,0.27087 -0.23261,0.0552 -0.5154,0.0823 -0.84837,0.0811 -0.63937,-0.0227 -1.05186,-0.24955 -1.23748,-0.68061 -0.18563,-0.43106 -0.26812,-0.93018 -0.2475,-1.49736 -0.0206,-0.56718 0.0619,-1.06629 0.2475,-1.49735 0.18562,-0.43106 0.59811,-0.65793 1.23748,-0.68062 0.19685,-2.2e-4 0.37239,0.008 0.52662,0.0261 0.15422,0.0177 0.29401,0.0456 0.41937,0.0839 z"
         id="path3070"
         inkscape:connector-curvature="0"
         style="fill:#ffffff;fill-opacity:1" />
      <path
         d="m 279.29004,201.04079 c 0.022,-0.85546 -0.1265,-1.5425 -0.44549,-2.0611 -0.319,-0.51859 -0.94049,-0.78488 -1.86448,-0.79886 -0.91918,0.014 -1.53929,0.28027 -1.86035,0.79886 -0.32106,0.51861 -0.47093,1.20564 -0.44962,2.0611 -0.0213,0.85547 0.12856,1.5425 0.44962,2.0611 0.32106,0.5186 0.94117,0.78489 1.86035,0.79886 0.92399,-0.014 1.54548,-0.28026 1.86448,-0.79886 0.31899,-0.5186 0.46749,-1.20563 0.44549,-2.0611 z m -0.76999,0 c 0.0252,0.63456 -0.0527,1.15293 -0.23374,1.55511 -0.18105,0.40218 -0.61646,0.6098 -1.30624,0.62286 -0.69941,-0.0131 -1.13757,-0.22068 -1.31448,-0.62286 -0.17692,-0.40218 -0.25208,-0.92055 -0.2255,-1.55511 -0.0266,-0.63455 0.0486,-1.15292 0.2255,-1.5551 0.17691,-0.40218 0.61507,-0.6098 1.31448,-0.62287 0.68978,0.0131 1.12519,0.22069 1.30624,0.62287 0.18103,0.40218 0.25895,0.92055 0.23374,1.5551 z"
         id="path3072"
         inkscape:connector-curvature="0"
         style="fill:#ffffff;fill-opacity:1" />
      <path
         d="m 282.89309,202.31678 c 0.81605,-0.0154 1.38117,-0.2184 1.69535,-0.60912 0.31418,-0.39072 0.46406,-0.87701 0.44962,-1.45886 0.001,-0.24291 -0.0231,-0.47207 -0.0729,-0.68749 -0.0497,-0.21541 -0.13177,-0.41157 -0.24612,-0.58849 l 0.92399,-0.264 0,-0.41799 -1.86998,0 c -0.12604,-0.0335 -0.26171,-0.06 -0.40699,-0.0797 -0.1453,-0.0197 -0.30296,-0.0298 -0.473,-0.0303 -0.81605,0.0154 -1.38117,0.2184 -1.69535,0.60912 -0.31419,0.39072 -0.46406,0.87701 -0.44962,1.45885 -0.005,0.38935 0.0596,0.74089 0.1925,1.05461 0.13291,0.31373 0.36207,0.56352 0.68749,0.74937 -0.11848,0.0937 -0.21702,0.20327 -0.29562,0.32862 -0.0786,0.12535 -0.1194,0.26514 -0.12238,0.41937 0.002,0.18012 0.0342,0.32862 0.0976,0.44549 0.0635,0.11688 0.14826,0.21038 0.25437,0.2805 l 0,0.011 c -0.30708,0.1226 -0.57016,0.29539 -0.78924,0.51837 -0.21908,0.22297 -0.33366,0.51951 -0.34375,0.88961 0.006,0.60041 0.22458,1.03582 0.65449,1.30623 0.42991,0.27041 1.03307,0.40333 1.80948,0.39875 0.78328,0.006 1.44969,-0.13796 1.99923,-0.43175 0.54952,-0.29379 0.83644,-0.7732 0.86073,-1.43823 0.002,-0.47322 -0.12008,-0.82476 -0.36574,-1.05461 -0.24567,-0.22985 -0.62608,-0.36964 -1.14124,-0.41937 l -1.86997,-0.21999 c -0.14254,-0.0151 -0.24796,-0.0564 -0.31625,-0.12375 -0.0683,-0.0674 -0.10221,-0.16913 -0.10175,-0.30525 0.001,-0.0671 0.0209,-0.13635 0.0591,-0.20762 0.0383,-0.0713 0.0882,-0.13773 0.14987,-0.19937 0.209,0.044 0.45099,0.066 0.72599,0.066 z m 1.19899,1.60597 c 0.33067,0.0344 0.56305,0.11688 0.69711,0.2475 0.13406,0.13062 0.19868,0.33412 0.19387,0.61049 -0.0183,0.45856 -0.22916,0.77343 -0.63249,0.94462 -0.40333,0.17118 -0.88916,0.2523 -1.45748,0.24337 -0.56672,0.008 -0.99251,-0.0605 -1.27736,-0.20625 -0.28485,-0.14575 -0.42739,-0.418 -0.42762,-0.81674 0.0108,-0.34672 0.14048,-0.61301 0.38912,-0.79886 0.24864,-0.18586 0.5516,-0.3229 0.90887,-0.41112 z m -1.19899,-2.28797 c -0.62264,-0.0124 -1.02184,-0.15262 -1.19761,-0.42074 -0.17577,-0.26812 -0.25323,-0.58986 -0.23237,-0.96524 -0.0209,-0.37536 0.0566,-0.69711 0.23237,-0.96524 0.17577,-0.26811 0.57497,-0.40836 1.19761,-0.42074 0.62264,0.0124 1.02184,0.15263 1.19761,0.42074 0.17577,0.26813 0.25322,0.58988 0.23237,0.96524 0.0209,0.37538 -0.0566,0.69712 -0.23237,0.96524 -0.17577,0.26812 -0.57497,0.40837 -1.19761,0.42074 z"
         id="path3074"
         inkscape:connector-curvature="0"
         style="fill:#ffffff;fill-opacity:1" />
      <path
         d="m 295.06213,203.79076 -2.91496,-8.3599 -0.54999,0 -2.91496,8.3599 0.85798,0 0.75899,-2.30997 3.14596,0 0.75899,2.30997 z m -3.18996,-7.11691 1.35299,4.12494 -2.70597,0 z"
         id="path3076"
         inkscape:connector-curvature="0"
         style="fill:#ffffff;fill-opacity:1" />
      <path
         d="m 299.79131,203.79076 0.76999,0 0,-3.95995 c 0.004,-0.53074 -0.14415,-0.93774 -0.44412,-1.22099 -0.29998,-0.28324 -0.77527,-0.42624 -1.42586,-0.42899 -0.29196,-2.2e-4 -0.57704,0.047 -0.85524,0.14162 -0.2782,0.0947 -0.54678,0.23811 -0.80574,0.43037 l -0.16499,-0.46199 -0.429,0 0,5.49993 0.76999,0 0,-4.57594 c 0.19525,-0.11573 0.40424,-0.20327 0.62699,-0.26263 0.22275,-0.0593 0.50874,-0.0891 0.85799,-0.0894 0.3442,-0.006 0.61278,0.0607 0.80574,0.19937 0.19295,0.13865 0.29104,0.38386 0.29425,0.73562 z"
         id="path3078"
         inkscape:connector-curvature="0"
         style="fill:#ffffff;fill-opacity:1" />
      <path
         d="m 304.40359,198.18083 c -0.86876,0.0202 -1.46596,0.29883 -1.7916,0.83599 -0.32565,0.53716 -0.4801,1.21182 -0.46337,2.02397 -0.0167,0.81216 0.13772,1.48682 0.46337,2.02398 0.32564,0.53716 0.92284,0.81582 1.7916,0.83598 0.29562,-6.8e-4 0.58436,-0.0488 0.86624,-0.14437 0.28186,-0.0956 0.56511,-0.23443 0.84974,-0.41662 l 0.16499,0.451 0.429,0 0,-8.2499 -0.76999,0 0,3.09096 c -0.25804,-0.14872 -0.51471,-0.26101 -0.76999,-0.33687 -0.25529,-0.0759 -0.51196,-0.11389 -0.76999,-0.11412 z m 0.94599,0.79199 c 0.10449,0.0376 0.20624,0.0752 0.30524,0.11275 0.099,0.0376 0.19525,0.0807 0.28875,0.12925 l 0,3.65195 c -0.22848,0.12535 -0.45902,0.21564 -0.69162,0.27087 -0.2326,0.0552 -0.51539,0.0823 -0.84836,0.0811 -0.63937,-0.0227 -1.05186,-0.24955 -1.23749,-0.68061 -0.18562,-0.43106 -0.26812,-0.93018 -0.24749,-1.49736 -0.0206,-0.56718 0.0619,-1.06629 0.24749,-1.49735 0.18563,-0.43106 0.59812,-0.65793 1.23749,-0.68062 0.19685,-2.2e-4 0.37239,0.008 0.52662,0.0261 0.15422,0.0177 0.29401,0.0456 0.41937,0.0839 z"
         id="path3080"
         inkscape:connector-curvature="0"
         style="fill:#ffffff;fill-opacity:1" />
      <path
         d="m 311.49256,198.23583 c -0.10313,-0.0167 -0.20762,-0.03 -0.31349,-0.0399 -0.10588,-0.01 -0.22138,-0.0149 -0.3465,-0.0151 -0.31098,-2.2e-4 -0.61852,0.047 -0.92261,0.14162 -0.3041,0.0947 -0.58689,0.23811 -0.84837,0.43037 l -0.16499,-0.46199 -0.429,0 0,5.49993 0.76999,0 0,-4.57594 c 0.19777,-0.11573 0.42097,-0.20327 0.66962,-0.26263 0.24864,-0.0593 0.55709,-0.0891 0.92536,-0.0894 0.27499,0.002 0.49499,0.0312 0.65999,0.088 z"
         id="path3082"
         inkscape:connector-curvature="0"
         style="fill:#ffffff;fill-opacity:1" />
      <path
         d="m 317.2959,201.04079 c 0.022,-0.85546 -0.1265,-1.5425 -0.44549,-2.0611 -0.319,-0.51859 -0.94049,-0.78488 -1.86448,-0.79886 -0.91918,0.014 -1.53929,0.28027 -1.86035,0.79886 -0.32106,0.51861 -0.47093,1.20564 -0.44962,2.0611 -0.0213,0.85547 0.12856,1.5425 0.44962,2.0611 0.32106,0.5186 0.94117,0.78489 1.86035,0.79886 0.92399,-0.014 1.54548,-0.28026 1.86448,-0.79886 0.31899,-0.5186 0.46749,-1.20563 0.44549,-2.0611 z m -0.76999,0 c 0.0252,0.63456 -0.0527,1.15293 -0.23375,1.55511 -0.18104,0.40218 -0.61645,0.6098 -1.30623,0.62286 -0.69941,-0.0131 -1.13757,-0.22068 -1.31448,-0.62286 -0.17692,-0.40218 -0.25208,-0.92055 -0.2255,-1.55511 -0.0266,-0.63455 0.0486,-1.15292 0.2255,-1.5551 0.17691,-0.40218 0.61507,-0.6098 1.31448,-0.62287 0.68978,0.0131 1.12519,0.22069 1.30624,0.62287 0.18103,0.40218 0.25895,0.92055 0.23374,1.5551 z"
         id="path3084"
         inkscape:connector-curvature="0"
         style="fill:#ffffff;fill-opacity:1" />
      <path
         d="m 320.33796,203.90075 0,-0.62699 c -0.16844,0.003 -0.28806,-0.0309 -0.35887,-0.10312 -0.0708,-0.0722 -0.10519,-0.20281 -0.10313,-0.39187 l 0,-4.48794 -0.74799,0 0,4.39994 c 9.2e-4,0.43541 0.10358,0.74707 0.308,0.93499 0.20441,0.18791 0.50507,0.27958 0.90199,0.27499 z m -1.44098,-7.6449 c 0.004,0.1744 0.0621,0.31786 0.17462,0.43037 0.11252,0.11253 0.25597,0.17074 0.43037,0.17463 0.17439,-0.004 0.31785,-0.0621 0.43037,-0.17463 0.11252,-0.11251 0.17072,-0.25597 0.17462,-0.43037 -0.004,-0.17438 -0.0621,-0.31784 -0.17462,-0.43037 -0.11252,-0.11251 -0.25598,-0.17072 -0.43037,-0.17462 -0.1744,0.004 -0.31785,0.0621 -0.43037,0.17462 -0.11252,0.11253 -0.17073,0.25599 -0.17462,0.43037 z"
         id="path3086"
         inkscape:connector-curvature="0"
         style="fill:#ffffff;fill-opacity:1" />
      <path
         d="m 324.06179,198.18083 c -0.86876,0.0202 -1.46596,0.29883 -1.7916,0.83599 -0.32564,0.53716 -0.4801,1.21182 -0.46337,2.02397 -0.0167,0.81216 0.13773,1.48682 0.46337,2.02398 0.32564,0.53716 0.92284,0.81582 1.7916,0.83598 0.29562,-6.8e-4 0.58437,-0.0488 0.86624,-0.14437 0.28187,-0.0956 0.56511,-0.23443 0.84974,-0.41662 l 0.165,0.451 0.42899,0 0,-8.2499 -0.76999,0 0,3.09096 c -0.25804,-0.14872 -0.5147,-0.26101 -0.76999,-0.33687 -0.25529,-0.0759 -0.51195,-0.11389 -0.76999,-0.11412 z m 0.94599,0.79199 c 0.10449,0.0376 0.20624,0.0752 0.30525,0.11275 0.099,0.0376 0.19524,0.0807 0.28874,0.12925 l 0,3.65195 c -0.22848,0.12535 -0.45902,0.21564 -0.69161,0.27087 -0.23261,0.0552 -0.5154,0.0823 -0.84837,0.0811 -0.63937,-0.0227 -1.05186,-0.24955 -1.23748,-0.68061 -0.18563,-0.43106 -0.26813,-0.93018 -0.2475,-1.49736 -0.0206,-0.56718 0.0619,-1.06629 0.2475,-1.49735 0.18562,-0.43106 0.59811,-0.65793 1.23748,-0.68062 0.19685,-2.2e-4 0.37239,0.008 0.52662,0.0261 0.15422,0.0177 0.29401,0.0456 0.41937,0.0839 z"
         id="path3088"
         inkscape:connector-curvature="0"
         style="fill:#ffffff;fill-opacity:1" />
    </g>
  </g>
</svg>
