<?xml version="1.0" encoding="UTF-8" standalone="no"?>
<!-- Created with Inkscape (http://www.inkscape.org/) -->

<svg
   xmlns:dc="http://purl.org/dc/elements/1.1/"
   xmlns:cc="http://creativecommons.org/ns#"
   xmlns:rdf="http://www.w3.org/1999/02/22-rdf-syntax-ns#"
   xmlns:svg="http://www.w3.org/2000/svg"
   xmlns="http://www.w3.org/2000/svg"
   xmlns:sodipodi="http://sodipodi.sourceforge.net/DTD/sodipodi-0.dtd"
   xmlns:inkscape="http://www.inkscape.org/namespaces/inkscape"
   width="208.20703"
   height="57.805256"
   id="svg2"
   version="1.1"
   inkscape:version="0.48.5 r10040"
   sodipodi:docname="listen.svg">
  <defs
     id="defs4" />
  <sodipodi:namedview
     id="base"
     pagecolor="#ffffff"
     bordercolor="#666666"
     borderopacity="1.0"
     inkscape:pageopacity="0.0"
     inkscape:pageshadow="2"
     inkscape:zoom="0.35"
     inkscape:cx="-210.34852"
     inkscape:cy="-390.53259"
     inkscape:document-units="px"
     inkscape:current-layer="layer1"
     showgrid="false"
     fit-margin-top="0"
     fit-margin-left="0"
     fit-margin-right="0"
     fit-margin-bottom="0"
     inkscape:window-width="1920"
     inkscape:window-height="1005"
     inkscape:window-x="-9"
     inkscape:window-y="-9"
     inkscape:window-maximized="1" />
  <metadata
     id="metadata7">
    <rdf:RDF>
      <cc:Work
         rdf:about="">
        <dc:format>image/svg+xml</dc:format>
        <dc:type
           rdf:resource="http://purl.org/dc/dcmitype/StillImage" />
        <dc:title></dc:title>
      </cc:Work>
    </rdf:RDF>
  </metadata>
  <g
     inkscape:label="Layer 1"
     inkscape:groupmode="layer"
     id="layer1"
     transform="translate(-66.777093,-84.024341)">
    <g
       style="font-size:56px;font-style:normal;font-weight:normal;line-height:125%;letter-spacing:0px;word-spacing:0px;fill:#ffffff;fill-opacity:1;stroke:none;font-family:Apex Sans Bold;-inkscape-font-specification:Apex Sans Bold"
       id="text2985">
      <path
         d="m 96.792706,140.93361 0,-41.99946 -7.7279,0 0,16.57579 -14.559813,0 0,-16.57579 -7.7279,0 0,41.99946 7.7279,0 0,-17.97577 14.559813,0 0,17.97577 z"
         style="fill:#ffffff;fill-opacity:1"
         id="path3758" />
      <path
         d="m 137.15642,98.93415 -9.29588,0 -0.27999,0.447994 c -1.00568,-0.423454 -2.13033,-0.752449 -3.37396,-0.986989 -1.24367,-0.234454 -2.62032,-0.353452 -4.12995,-0.356994 -4.71432,0.0671 -8.24642,1.146299 -10.5963,3.237589 -2.34991,2.09137 -3.90337,4.79247 -4.66039,8.1033 -0.75703,3.3109 -1.1034,6.82917 -1.0391,10.55483 -0.028,2.82798 0.154,5.55794 0.546,8.18989 0.39199,2.63198 1.16198,4.99795 2.30997,7.09791 l -3.30396,5.71193 9.29588,0 0.168,-0.336 c 0.97881,0.39433 2.07312,0.69766 3.28296,0.90999 1.2098,0.21233 2.54211,0.31966 3.99694,0.322 4.73192,-0.0671 8.27231,-1.14626 10.6212,-3.23759 2.34883,-2.09133 3.89814,-4.79243 4.64794,-8.1033 0.74973,-3.31086 1.09195,-6.82913 1.02665,-10.55483 0.0256,-2.74627 -0.1517,-5.41557 -0.53199,-8.0079 -0.38036,-2.59227 -1.11769,-4.92557 -2.21197,-6.99991 z m -25.42367,20.99973 c -0.10734,-3.95843 0.37332,-7.32538 1.44198,-10.10087 1.06864,-2.77543 3.36928,-4.22441 6.90191,-4.34694 0.69997,0.002 1.34397,0.0677 1.93198,0.19599 0.58797,0.12837 1.11996,0.3057 1.59598,0.532 l -11.53585,19.76774 c -0.13651,-0.92747 -0.22751,-1.90046 -0.273,-2.91896 -0.0455,-1.01847 -0.0665,-2.06146 -0.063,-3.12896 z m 16.68779,0 c 0.1073,3.95846 -0.37336,7.32542 -1.44198,10.10087 -1.06868,2.77547 -3.36932,4.22445 -6.90192,4.34694 -0.64167,0.001 -1.23433,-0.0432 -1.77797,-0.133 -0.54368,-0.0898 -1.05234,-0.23215 -1.52598,-0.42699 l 11.36785,-19.43175 c 0.10964,0.87151 0.1843,1.7745 0.224,2.70897 0.0396,0.93451 0.0583,1.87949 0.056,2.83496 z"
         style="fill:#ffffff;fill-opacity:1"
         id="path3760" />
      <path
         d="m 151.06749,124.35782 6.66392,0 8.11989,16.57579 9.35188,0 -9.51987,-18.08777 c 2.2901,-1.04297 3.89775,-2.51295 4.82293,-4.40994 0.92513,-1.89695 1.37079,-4.17892 1.33699,-6.84591 0.0863,-3.93275 -0.95436,-7.01504 -3.12196,-9.24688 -2.16767,-2.23177 -5.98028,-3.368086 -11.43786,-3.40896 l -13.94382,0 0,41.99946 7.7279,0 z m 0,-17.97577 6.94391,0 c 2.39162,0.035 3.95026,0.53903 4.67594,1.51198 0.72564,0.97302 1.0523,2.20501 0.97999,3.69596 0.0723,1.52017 -0.25435,2.77782 -0.97999,3.77295 -0.72568,0.99518 -2.28432,1.51084 -4.67594,1.54698 l -6.94391,0 z"
         style="fill:#ffffff;fill-opacity:1"
         id="path3762" />
      <path
         d="m 221.60008,140.93361 0,-41.99946 -7.55991,0 0.112,26.31966 -16.96778,-26.31966 -6.04792,0 0,41.99946 7.5599,0 -0.112,-26.31966 16.96778,26.31966 z"
         style="fill:#ffffff;fill-opacity:1"
         id="path3764" />
      <path
         d="m 235.29764,140.93361 3.35996,-10.63986 11.59185,0 3.52795,10.63986 8.3439,0 -14.89581,-42.895449 -5.37593,0 -14.95181,42.895449 z m 15.06381,-51.071343 c -0.0257,-2.006588 -0.56235,-3.481234 -1.60998,-4.423944 -1.04768,-0.942598 -2.45232,-1.409258 -4.21395,-1.399981 -1.78849,-0.0093 -3.20947,0.457384 -4.26294,1.399981 -1.0535,0.942709 -1.59249,2.417355 -1.61698,4.423944 0.0245,1.979857 0.56348,3.43817 1.61698,4.374943 1.05347,0.936866 2.47445,1.401193 4.26294,1.392982 1.76163,0.0082 3.16627,-0.456115 4.21395,-1.392981 1.04763,-0.936774 1.58429,-2.395087 1.60998,-4.374944 z m -2.40797,33.095573 -6.94391,0 3.52795,-10.97586 z M 246.5535,89.862267 c -0.004,0.718707 -0.17852,1.227366 -0.525,1.525979 -0.34651,0.298712 -0.8435,0.443377 -1.49098,0.433995 -0.67201,0.0094 -1.176,-0.135281 -1.51198,-0.433994 -0.33601,-0.298614 -0.50401,-0.807273 -0.50399,-1.52598 -2e-5,-0.772272 0.16798,-1.313597 0.50399,-1.62398 0.33598,-0.310276 0.83997,-0.459608 1.51198,-0.447994 0.64748,-0.01161 1.14447,0.137719 1.49098,0.447994 0.34648,0.310381 0.52147,0.851707 0.525,1.62398 z"
         style="fill:#ffffff;fill-opacity:1"
         id="path3766" />
      <path
         d="m 272.91215,129.17376 2.01597,-30.23961 -9.07188,0 2.01597,30.23961 z m -7.05591,7.9519 c 0.0315,1.29148 0.47249,2.36247 1.32298,3.21296 0.85049,0.85048 1.92147,1.29148 3.21296,1.32298 1.29381,-0.0315 2.37413,-0.47249 3.24096,-1.32298 0.86681,-0.85049 1.31714,-1.92148 1.35098,-3.21296 -0.0338,-1.29381 -0.48417,-2.37413 -1.35098,-3.24096 -0.86683,-0.86681 -1.94715,-1.31714 -3.24096,-1.35098 -1.29149,0.0338 -2.36247,0.48417 -3.21296,1.35098 -0.85049,0.86683 -1.29149,1.94715 -1.32298,3.24096 z"
         style="fill:#ffffff;fill-opacity:1"
         id="path3768" />
    </g>
  </g>
</svg>
